<svg xmlns="http://www.w3.org/2000/svg" viewBox="0 0 512 512">
  <defs>
    <linearGradient id="bg" x1="0%" y1="0%" x2="100%" y2="100%">
      <stop offset="0%" stop-color="#15803d" />
      <stop offset="100%" stop-color="#0f5132" />
    </linearGradient>
    <linearGradient id="accent" x1="0%" y1="0%" x2="100%" y2="100%">
      <stop offset="0%" stop-color="#4ade80" />
      <stop offset="100%" stop-color="#22c55e" />
    </linearGradient>
    <filter id="glow" x="-20%" y="-20%" width="140%" height="140%">
      <feDropShadow dx="0" dy="8" stdDeviation="12" flood-color="#000" flood-opacity="0.3"/>
    </filter>
  </defs>
  <rect width="512" height="512" rx="128" fill="url(#bg)"/>
  <circle cx="256" cy="256" r="210" fill="none" stroke="url(#accent)" stroke-width="6" stroke-dasharray="16 8" opacity="0.6"/>
  <g filter="url(#glow)">
    <path d="M256 90 C180 90, 120 150, 120 226 C120 310, 230 410, 256 430 C282 410, 392 310, 392 226 C392 150, 332 90, 256 90 Z" fill="#ffffff" />
    <circle cx="256" cy="220" r="70" fill="url(#bg)" />
    <path d="M256 260 C256 210, 290 180, 310 180 C310 210, 280 245, 256 260 Z" fill="#22c55e" />
    <path d="M256 260 C256 200, 220 185, 205 195 C205 225, 235 250, 256 260 Z" fill="#4ade80" />
    <circle cx="256" cy="270" r="8" fill="#ffffff" />
  </g>
</svg>